<?xml version="1.0" standalone="no"?>
<!DOCTYPE svg PUBLIC "-//W3C//DTD SVG 20010904//EN"
 "http://www.w3.org/TR/2001/REC-SVG-20010904/DTD/svg10.dtd">
<svg version="1.0" xmlns="http://www.w3.org/2000/svg"
 width="1024.000000pt" height="1024.000000pt" viewBox="0 0 1024.000000 1024.000000"
 preserveAspectRatio="xMidYMid meet">

<g transform="translate(0.000000,1024.000000) scale(0.100000,-0.100000)"
fill="#000000" stroke="none">
<path d="M5357 8505 c-21 -8 -93 -26 -161 -40 -154 -31 -270 -32 -676 -5 -354
24 -475 25 -570 5 -85 -18 -200 -64 -267 -108 -78 -50 -174 -155 -215 -232
-61 -118 -67 -153 -79 -449 -14 -358 -11 -427 20 -460 13 -14 39 -28 56 -32
32 -6 32 -6 44 -91 31 -219 181 -452 375 -582 157 -106 284 -144 481 -144 159
0 232 16 354 78 104 52 138 79 234 190 38 44 81 94 97 110 15 17 39 58 53 92
14 35 35 76 46 92 30 42 41 76 52 165 10 75 12 82 49 113 63 55 73 96 61 252
-6 75 -17 144 -25 159 -11 22 -15 79 -17 245 l-2 217 25 23 c50 46 168 320
168 390 0 24 -4 27 -32 26 -18 0 -50 -7 -71 -14z m-1386 -574 c155 -117 387
-181 653 -181 129 0 177 4 305 26 l44 7 -6 -264 c-6 -283 -11 -320 -72 -489
-69 -190 -139 -276 -278 -345 -51 -25 -119 -50 -152 -56 -71 -13 -199 -6 -272
16 -71 21 -188 100 -255 174 -77 83 -120 176 -167 362 -39 152 -39 156 -43
375 l-3 221 88 97 c49 53 93 96 98 96 5 0 32 -18 60 -39z"/>
<path d="M2372 8233 c-69 -34 -112 -128 -92 -202 21 -78 76 -121 155 -121 86
0 152 48 176 130 39 131 -114 255 -239 193z"/>
<path d="M1905 8175 c-43 -23 -68 -61 -73 -116 -4 -46 -2 -51 37 -90 39 -40
43 -41 91 -37 61 6 96 35 111 91 14 53 4 88 -35 126 -39 38 -89 48 -131 26z"/>
<path d="M2368 7721 c-54 -35 -88 -96 -88 -163 0 -72 57 -141 131 -157 144
-31 254 133 179 268 -47 83 -139 105 -222 52z"/>
<path d="M7164 7709 c-28 -29 -29 -33 -27 -120 1 -50 5 -105 9 -122 8 -41 129
-165 364 -377 96 -87 195 -179 220 -204 l44 -46 -421 0 -420 0 -6 28 c-4 18
-31 50 -78 92 -39 35 -123 128 -186 207 l-115 143 -122 0 c-66 0 -131 3 -143
6 -18 5 -23 1 -29 -22 -10 -39 27 -104 84 -149 25 -19 81 -75 125 -123 116
-128 166 -205 121 -188 -9 3 -51 6 -95 6 -58 0 -79 3 -79 13 0 22 -162 230
-330 425 l-28 32 -161 0 c-88 0 -162 -4 -165 -8 -16 -26 62 -128 240 -315 51
-54 102 -110 113 -125 l19 -27 -219 2 c-153 2 -220 -1 -225 -9 -22 -36 -14
-265 9 -273 7 -2 101 -7 209 -10 179 -7 197 -9 189 -24 -5 -9 -82 -94 -171
-190 -162 -173 -162 -173 -157 -213 3 -22 8 -42 10 -45 3 -2 74 -1 158 4 136
7 153 10 163 28 51 91 128 188 225 286 64 63 121 123 126 133 8 14 22 17 78
14 l68 -3 -28 -36 c-15 -20 -72 -85 -126 -144 -110 -121 -126 -146 -134 -215
l-6 -48 64 -6 c35 -3 90 -7 122 -9 l57 -4 77 96 c42 53 139 158 215 234 l139
138 222 5 c122 3 298 1 391 -3 l169 -8 -62 -78 c-34 -43 -121 -139 -193 -215
-208 -218 -289 -311 -310 -360 -18 -41 -20 -60 -15 -164 5 -126 20 -168 57
-168 11 0 118 100 277 262 411 417 559 562 696 680 120 104 157 147 157 182 0
23 -113 144 -231 248 -116 102 -589 541 -765 711 -61 59 -118 107 -126 107 -8
0 -27 -14 -44 -31z"/>
<path d="M1905 7681 c-31 -13 -72 -59 -78 -87 -7 -41 10 -90 45 -125 30 -29
35 -31 91 -27 52 4 64 9 88 36 23 26 29 42 29 78 0 58 -26 96 -80 118 -44 18
-65 19 -95 7z"/>
<path d="M2369 7222 c-57 -37 -83 -87 -83 -162 -1 -69 28 -120 88 -155 82 -48
159 -24 214 65 39 66 41 108 6 178 -32 64 -72 94 -133 99 -38 4 -54 -1 -92
-25z"/>
<path d="M1886 7171 c-78 -52 -88 -148 -22 -208 30 -28 43 -33 84 -33 88 0
146 58 139 138 -10 95 -124 153 -201 103z"/>
<path d="M3000 7086 c0 -20 -32 -86 -41 -86 -4 0 -7 -9 -6 -20 4 -55 67 12 67
71 0 21 -4 41 -10 44 -5 3 -10 -1 -10 -9z"/>
<path d="M2915 6970 c-3 -6 1 -7 9 -4 18 7 21 14 7 14 -6 0 -13 -4 -16 -10z"/>
<path d="M2385 6701 c-63 -39 -105 -109 -105 -173 1 -46 31 -109 69 -141 108
-90 262 -8 262 139 0 143 -124 239 -226 175z"/>
<path d="M1875 6624 c-42 -56 -47 -106 -13 -149 23 -29 78 -57 100 -51 7 3 25
7 40 10 36 8 78 70 78 115 0 28 -9 43 -45 78 -38 36 -52 43 -85 43 -35 0 -43
-5 -75 -46z"/>
<path d="M3463 6141 c-168 -85 -811 -476 -921 -561 -126 -98 -220 -213 -261
-322 -66 -172 -64 -150 -68 -662 l-4 -468 980 3 c974 4 980 4 976 24 -39 166
-56 237 -65 259 -5 15 -55 204 -110 419 -110 426 -167 640 -235 872 -24 83
-51 179 -60 215 -9 36 -32 113 -51 173 -27 82 -40 107 -52 105 -9 -1 -67 -26
-129 -57z"/>
<path d="M5077 6138 c-14 -24 -41 -108 -62 -188 -20 -80 -64 -239 -97 -355
-33 -115 -113 -421 -179 -680 -65 -258 -130 -513 -144 -565 -14 -52 -28 -120
-32 -151 l-6 -56 174 -6 c96 -4 550 -7 1011 -7 l836 0 -4 328 c-8 619 -10 636
-93 807 -86 175 -203 282 -476 431 -88 48 -263 147 -390 220 -236 136 -479
264 -502 264 -7 0 -23 -19 -36 -42z"/>
<path d="M4275 5968 c-78 -29 -195 -138 -195 -182 0 -13 19 -61 43 -106 l42
-82 7 -406 c5 -301 11 -420 21 -457 68 -244 132 -455 144 -479 13 -25 17 -27
25 -13 9 17 120 425 144 532 10 42 16 177 20 445 7 428 6 423 76 486 30 27 38
41 34 57 -7 27 -117 165 -151 190 -31 23 -165 33 -210 15z"/>
<path d="M4354 3766 c-75 -33 -120 -134 -95 -217 49 -164 248 -173 322 -14 24
53 24 99 -2 153 -36 74 -146 112 -225 78z"/>
<path d="M2423 3746 c-54 -26 -94 -78 -108 -142 -12 -62 41 -146 119 -186 50
-26 109 -18 165 22 116 84 105 241 -21 304 -64 32 -89 32 -155 2z"/>
<path d="M3071 3753 c-92 -48 -127 -162 -79 -253 81 -150 312 -97 326 75 9
105 -58 185 -161 192 -37 3 -62 -1 -86 -14z"/>
<path d="M3715 3755 c-82 -45 -113 -115 -93 -208 34 -160 241 -185 316 -37 42
84 19 185 -53 230 -47 29 -131 36 -170 15z"/>
<path d="M5009 3761 c-64 -21 -108 -74 -124 -148 -13 -66 32 -155 96 -188 36
-19 112 -19 148 -1 99 52 132 186 66 271 -43 57 -125 86 -186 66z"/>
<path d="M5643 3759 c-46 -14 -100 -71 -113 -121 -31 -111 55 -228 168 -228
49 0 125 47 148 92 24 44 22 127 -2 169 -44 74 -127 111 -201 88z"/>
<path d="M6270 3753 c-19 -10 -49 -37 -66 -60 -69 -91 -46 -213 52 -273 78
-49 201 -5 245 87 66 137 -99 314 -231 246z"/>
<path d="M3095 3105 c-65 -35 -115 -100 -115 -150 0 -39 36 -101 77 -132 71
-55 181 -28 235 56 48 74 31 147 -47 207 -44 33 -108 41 -150 19z"/>
<path d="M5645 3091 c-22 -10 -55 -35 -74 -56 -31 -35 -33 -42 -29 -92 13
-149 186 -207 281 -94 70 84 48 199 -46 242 -52 23 -81 23 -132 0z"/>
<path d="M4370 3075 c-106 -48 -135 -142 -75 -236 49 -76 170 -89 241 -27 63
56 79 113 50 183 -29 69 -144 112 -216 80z"/>
<path d="M5004 3066 c-70 -33 -94 -66 -94 -130 0 -60 25 -107 72 -137 27 -16
46 -19 97 -16 61 3 65 5 107 49 41 44 44 51 44 101 0 63 -21 97 -78 126 -63
32 -92 33 -148 7z"/>
<path d="M6273 3063 c-115 -40 -125 -169 -20 -247 37 -27 128 -28 172 -2 49
29 80 82 80 137 0 55 -20 83 -80 110 -48 22 -95 23 -152 2z"/>
<path d="M2424 3055 c-53 -24 -84 -70 -84 -123 0 -64 27 -105 91 -138 40 -20
60 -24 88 -19 50 10 83 29 119 69 59 67 49 146 -24 196 -44 30 -141 38 -190
15z"/>
<path d="M3704 3046 c-76 -47 -98 -146 -47 -207 39 -46 101 -71 155 -63 87 13
148 74 148 146 0 53 -17 83 -64 115 -59 39 -137 43 -192 9z"/>
<path d="M3081 2598 c-89 -61 -119 -140 -83 -220 36 -82 125 -125 204 -99 47
16 106 76 118 122 37 135 -129 273 -239 197z"/>
<path d="M3728 2600 c-111 -60 -135 -195 -49 -281 78 -78 191 -70 258 18 24
31 28 46 28 98 0 50 -5 69 -27 102 -46 70 -143 99 -210 63z"/>
<path d="M5001 2603 c-19 -10 -48 -35 -65 -56 -25 -31 -31 -49 -34 -100 -3
-53 0 -67 20 -97 31 -45 92 -80 144 -80 95 0 184 102 169 196 -15 106 -147
183 -234 137z"/>
<path d="M5641 2602 c-59 -29 -94 -84 -99 -150 -3 -50 0 -63 26 -103 62 -96
175 -107 253 -22 38 40 49 66 49 113 0 77 -49 141 -129 168 -46 16 -60 15
-100 -6z"/>
<path d="M2440 2603 c-30 -12 -66 -45 -87 -81 -77 -125 51 -294 190 -253 45
14 100 59 123 103 33 64 3 168 -60 207 -37 23 -135 37 -166 24z"/>
<path d="M4354 2591 c-68 -42 -103 -120 -84 -191 31 -114 152 -165 247 -103
60 38 86 91 81 159 -4 45 -11 61 -38 89 -63 65 -145 83 -206 46z"/>
<path d="M6259 2594 c-32 -21 -67 -72 -80 -118 -30 -107 82 -223 195 -202 41
8 100 55 122 97 23 45 18 118 -11 161 -46 67 -164 100 -226 62z"/>
</g>
</svg>
