<?xml version="1.0" standalone="no"?>
<!DOCTYPE svg PUBLIC "-//W3C//DTD SVG 20010904//EN"
 "http://www.w3.org/TR/2001/REC-SVG-20010904/DTD/svg10.dtd">
<svg version="1.0" xmlns="http://www.w3.org/2000/svg"
 width="1024.000000pt" height="1024.000000pt" viewBox="0 0 1024.000000 1024.000000"
 preserveAspectRatio="xMidYMid meet">

<g transform="translate(0.000000,1024.000000) scale(0.100000,-0.100000)"
fill="#000000" stroke="none">
<path d="M4948 8948 c-47 -12 -123 -79 -149 -130 -23 -46 -27 -131 -9 -198 14
-52 81 -127 135 -151 25 -12 64 -19 101 -19 119 0 220 81 244 195 21 100 -7
186 -82 249 -66 57 -154 77 -240 54z"/>
<path d="M4153 8669 c-45 -13 -88 -60 -103 -113 -11 -40 -10 -52 4 -91 19 -48
72 -101 112 -111 72 -18 163 27 191 95 51 121 -76 259 -204 220z"/>
<path d="M5782 8659 c-59 -29 -92 -80 -92 -142 0 -55 16 -90 59 -131 38 -37
120 -47 169 -22 84 43 118 160 69 235 -27 41 -95 81 -138 81 -13 0 -43 -10
-67 -21z"/>
<path d="M7924 8453 c-131 -131 -304 -318 -328 -355 -18 -27 -18 -29 2 -71 11
-24 27 -49 36 -56 21 -17 30 -10 109 89 33 41 139 154 234 251 l174 176 -47
36 c-26 20 -53 37 -59 37 -7 0 -61 -48 -121 -107z"/>
<path d="M3401 8348 c-105 -56 -121 -199 -32 -282 43 -41 128 -47 186 -14 57
34 87 89 82 155 -9 125 -130 198 -236 141z"/>
<path d="M6512 8354 c-78 -40 -108 -161 -61 -244 60 -107 221 -103 285 6 22
38 26 54 22 100 -5 58 -24 93 -71 128 -37 27 -130 33 -175 10z"/>
<path d="M4729 8095 c-462 -50 -968 -264 -1328 -559 -268 -221 -508 -501 -671
-786 -155 -268 -247 -521 -290 -790 -12 -74 -26 -159 -31 -189 -5 -30 -9 -62
-9 -72 0 -16 44 -17 733 -16 l734 2 29 115 c63 252 194 449 402 604 148 110
296 177 485 222 l77 18 0 733 c0 403 -3 732 -7 732 -5 -1 -60 -7 -124 -14z
m-105 -647 c-5 -229 -6 -233 -27 -239 -241 -71 -383 -134 -527 -231 -214 -145
-445 -377 -580 -583 -66 -101 -174 -322 -195 -400 l-17 -60 -224 -1 c-202 -1
-224 1 -224 16 0 9 15 70 34 136 121 423 408 850 761 1132 187 148 447 299
646 372 107 40 284 88 326 89 l31 1 -4 -232z"/>
<path d="M5191 7375 l4 -736 25 -5 c191 -43 315 -89 436 -163 269 -167 464
-439 514 -716 l12 -70 748 -4 747 -3 -17 108 c-59 366 -125 574 -280 872 -173
334 -394 607 -684 849 -250 209 -598 399 -893 488 -220 67 -302 83 -557 109
l-59 6 4 -735z m399 280 c300 -80 619 -252 902 -486 195 -161 422 -446 532
-666 97 -195 185 -429 203 -537 l6 -38 -44 7 c-53 10 -324 10 -367 1 l-30 -7
-32 103 c-36 115 -67 182 -146 309 -162 262 -437 530 -699 681 -110 64 -320
151 -426 177 l-69 16 0 233 0 232 38 0 c20 0 80 -11 132 -25z"/>
<path d="M2774 7920 c-53 -12 -103 -49 -132 -98 -23 -40 -27 -58 -27 -122 0
-64 5 -83 28 -122 48 -82 115 -115 205 -102 90 13 145 54 181 134 54 119 -11
269 -133 305 -54 16 -74 17 -122 5z"/>
<path d="M7145 7911 c-139 -63 -167 -247 -55 -362 36 -38 55 -49 98 -58 103
-22 197 19 245 107 89 164 -5 332 -187 332 -37 0 -77 -8 -101 -19z"/>
<path d="M7682 7229 c-54 -27 -81 -66 -89 -128 -11 -91 51 -177 137 -188 53
-7 83 2 124 38 96 84 81 230 -28 280 -54 24 -91 24 -144 -2z"/>
<path d="M2220 7218 c-58 -40 -75 -72 -75 -141 0 -78 28 -127 89 -156 59 -29
103 -27 158 8 97 62 112 177 35 259 -53 57 -147 70 -207 30z"/>
<path d="M1946 6495 c-22 -7 -55 -30 -74 -49 -84 -83 -35 -242 84 -275 97 -27
204 61 204 169 0 113 -110 193 -214 155z"/>
<path d="M8030 6498 c-135 -39 -171 -203 -65 -297 43 -37 85 -46 142 -30 120
33 168 177 92 274 -39 48 -109 71 -169 53z"/>
<path d="M4885 6185 c-248 -45 -487 -250 -563 -482 -38 -115 -46 -192 -33
-309 19 -164 48 -243 126 -341 119 -149 260 -237 435 -273 217 -45 419 -10
593 102 304 196 419 618 254 933 -41 79 -189 226 -283 282 -90 52 -144 70
-263 88 -114 18 -172 18 -266 0z m283 -413 c68 -33 124 -87 159 -154 24 -46
28 -65 28 -138 0 -72 -4 -94 -27 -142 -58 -125 -174 -198 -314 -198 -50 0 -74
6 -132 36 -127 63 -197 172 -196 304 1 128 59 221 176 281 104 53 211 57 306
11z"/>
<path d="M7977 5963 c-3 -5 -8 -30 -11 -58 -10 -73 9 -196 39 -255 22 -43 34
-54 82 -76 67 -29 123 -70 123 -89 0 -18 -82 -89 -133 -115 -59 -29 -75 -42
-87 -76 -15 -37 -41 -259 -34 -279 14 -36 77 -2 209 114 99 87 205 175 324
266 50 39 91 72 91 76 0 9 -63 65 -111 97 -58 39 -153 117 -320 265 -137 122
-165 143 -172 130z"/>
<path d="M1815 5721 c-119 -30 -204 -149 -192 -265 15 -146 107 -236 242 -236
97 0 188 55 240 144 68 115 20 268 -104 330 -51 26 -139 39 -186 27z"/>
<path d="M2396 5293 c-4 -4 20 -180 45 -333 33 -202 132 -481 252 -713 278
-535 785 -992 1378 -1240 201 -85 514 -164 719 -182 l75 -7 -3 629 -3 628 164
0 164 0 4 -235 c2 -129 4 -413 4 -631 l0 -395 116 17 c204 31 320 59 504 119
476 157 899 433 1193 778 259 304 412 574 540 957 40 118 104 409 118 533 l7
62 -149 2 c-82 1 -417 3 -746 3 l-596 0 -17 -84 c-41 -206 -136 -382 -294
-545 -135 -138 -237 -203 -444 -280 -268 -100 -634 -83 -903 43 -98 46 -240
141 -317 211 -77 71 -169 195 -221 299 -43 85 -98 239 -114 316 l-8 39 -694 3
c-382 2 -712 5 -733 6 -21 1 -39 1 -41 0z m868 -239 c3 -9 6 -25 6 -36 0 -11
15 -67 34 -123 136 -406 493 -812 896 -1019 167 -86 239 -114 341 -133 l86
-17 -1 -243 -1 -244 -33 6 c-70 13 -400 128 -489 170 -372 176 -715 475 -954
832 -142 212 -220 384 -282 624 -51 198 -51 187 -8 192 20 2 118 4 217 5 158
2 183 0 188 -14z m3973 -21 c-14 -84 -73 -288 -108 -375 -48 -120 -85 -196
-152 -308 -122 -204 -202 -307 -376 -481 -110 -109 -179 -169 -281 -240 -160
-111 -426 -249 -585 -302 -137 -46 -299 -88 -303 -78 -1 4 -6 111 -10 239 l-7
232 55 10 c204 39 437 154 671 331 172 130 393 400 511 624 52 100 120 266
133 325 4 19 9 38 12 43 2 4 103 7 225 7 l220 0 -5 -27z"/>
<path d="M8017 4786 c-50 -18 -76 -42 -98 -91 -24 -51 -23 -89 0 -141 41 -90
137 -125 221 -82 135 70 113 277 -35 317 -48 13 -41 13 -88 -3z"/>
<path d="M1954 4781 c-39 -10 -67 -29 -96 -66 -18 -24 -23 -42 -23 -91 0 -54
4 -67 31 -101 54 -68 138 -92 204 -58 37 19 86 91 95 138 11 58 -34 143 -89
168 -43 20 -71 22 -122 10z"/>
<path d="M2244 4050 c-62 -25 -114 -124 -100 -191 21 -108 135 -169 231 -123
35 16 76 68 95 119 23 60 -12 148 -72 185 -35 21 -114 26 -154 10z"/>
<path d="M7680 4038 c-119 -60 -117 -245 3 -302 38 -18 102 -21 139 -7 13 5
38 23 55 41 79 81 52 224 -51 271 -54 25 -92 24 -146 -3z"/>
<path d="M2746 3436 c-145 -54 -188 -272 -78 -390 38 -40 81 -56 155 -56 115
0 198 64 228 174 25 91 -19 209 -96 256 -47 29 -152 37 -209 16z"/>
<path d="M7190 3439 c-60 -12 -121 -55 -145 -104 -39 -81 -27 -212 27 -280 33
-42 92 -66 162 -67 140 -1 235 88 236 221 0 115 -53 199 -142 226 -57 17 -72
17 -138 4z"/>
<path d="M2280 2898 c-80 -68 -239 -246 -247 -276 -6 -24 39 -101 63 -109 14
-5 223 207 289 291 25 32 45 66 45 76 0 20 -54 70 -75 70 -7 0 -41 -24 -75
-52z"/>
<path d="M3394 2852 c-89 -57 -114 -157 -62 -253 60 -108 215 -100 279 16 42
74 22 180 -44 227 -43 31 -131 36 -173 10z"/>
<path d="M6511 2848 c-56 -38 -75 -71 -78 -141 -3 -50 0 -69 19 -101 45 -77
140 -102 225 -58 156 81 100 305 -80 320 -42 3 -58 -1 -86 -20z"/>
<path d="M5806 2550 c-57 -18 -115 -99 -116 -163 0 -69 59 -150 122 -168 115
-30 233 88 199 201 -28 93 -124 154 -205 130z"/>
<path d="M4123 2530 c-91 -55 -106 -199 -28 -277 30 -30 39 -33 90 -33 68 0
113 23 150 78 48 71 26 181 -45 230 -43 29 -121 30 -167 2z"/>
<path d="M1767 2407 c-20 -34 -24 -52 -20 -85 4 -32 10 -42 24 -42 23 0 109
81 109 102 0 22 -46 68 -69 68 -12 0 -28 -16 -44 -43z"/>
<path d="M4983 2420 c-130 -26 -203 -116 -203 -251 0 -206 248 -326 405 -197
63 53 102 161 90 251 -18 128 -158 223 -292 197z"/>
</g>
</svg>
